<?xml version="1.0" encoding="UTF-8" standalone="no"?>
<svg
   width="180"
   height="180"
   viewBox="0 0 47.625 47.625"
   version="1.1"
   id="svg8"
   xmlns:xlink="http://www.w3.org/1999/xlink"
   xmlns="http://www.w3.org/2000/svg"
   xmlns:svg="http://www.w3.org/2000/svg">
  <defs
     id="defs2">
    <linearGradient
       id="linearGradient874">
      <stop
         style="stop-color:#4a6cf7;stop-opacity:1"
         offset="0"
         id="stop870" />
      <stop
         style="stop-color:#5e2cff;stop-opacity:1"
         offset="1"
         id="stop872" />
    </linearGradient>
    <linearGradient
       xlink:href="#linearGradient874"
       id="linearGradient876"
       x1="2.6459"
       y1="2.6459"
       x2="44.9792"
       y2="44.9792"
       gradientUnits="userSpaceOnUse" />
  </defs>
  <g id="apple-touch-icon">
    <rect
       style="fill:url(#linearGradient876);fill-opacity:1;stroke:none;stroke-width:1.32292;stroke-linecap:round;stroke-linejoin:round;stroke-miterlimit:4;stroke-dasharray:none;stroke-opacity:1"
       id="rect860"
       width="42.3334"
       height="42.3334"
       x="2.6459"
       y="2.6459"
       rx="9.5251"
       ry="9.5251" />
    <g
       aria-label="C"
       id="text864"
       style="font-style:normal;font-weight:normal;font-size:26.4583px;line-height:1.25;font-family:sans-serif;fill:#ffffff;fill-opacity:1;stroke:none;stroke-width:0.264583">
      <path
         d="m 31.1155,27.7834 c -1.0583,0.9207 -2.1867,1.5875 -3.3867,2.0001 -1.1997,0.4126 -2.4695,0.619 -3.8095,0.619 -3.9512,0 -7.0994,-1.3758 -9.445,-4.1274 -2.3447,-2.766 -3.5175,-6.5112 -3.5175,-11.2362 0,-4.7393 1.1728,-8.4912 3.5175,-11.2555 2.3449,-2.7782 5.4931,-4.1674 9.445,-4.1674 1.34,0 2.6098,0.206 3.8095,0.619 1.2,0.3974 2.3283,1.008 3.3867,1.8317 v 3.7919 c -1.089,-0.8687 -2.1662,-1.5108 -3.2319,-1.9252 -1.0655,-0.4276 -2.1875,-0.6415 -3.366,-0.6415 -2.8575,0 -5.1118,1.0348 -6.7618,3.1045 -1.6497,2.0696 -2.4756,4.941 -2.4756,8.6142 0,3.6596 0.8256,6.5243 2.4771,8.594 1.65,2.0697 3.9043,3.1045 6.76,3.1045 1.1787,0 2.3005,-0.214 3.366,-0.6415 1.0657,-0.4274 2.143,-1.0697 3.2321,-1.9259 z"
         style="font-style:normal;font-variant:normal;font-weight:bold;font-stretch:normal;font-size:26.4583px;font-family:'Arial Rounded MT Bold';-inkscape-font-specification:'Arial Rounded MT Bold, Bold';fill:#ffffff;stroke-width:0.264583"
         id="path866" />
    </g>
    <path
       style="fill:none;stroke:#ffffff;stroke-width:1.58749;stroke-linecap:round;stroke-linejoin:round;stroke-miterlimit:4;stroke-dasharray:none;stroke-opacity:1"
       d="M 13.2291,5.2916 10.371,6.0083 C 8.323,6.5217 7.8003,7.0365 7.1991,9.0886 l -3.0357,12.1058 c -0.5863,2.3426 -0.00114,3.5215 2.3432,4.1095 l 12.0859,3.0364 c 2.3434,0.5885 2.9276,0.0286 3.5237,-2.3198 L 26.4401,13.7519"
       id="path868" />
    <path
       style="fill:none;stroke:#ffffff;stroke-width:1.58749;stroke-linecap:round;stroke-linejoin:round;stroke-miterlimit:4;stroke-dasharray:none;stroke-opacity:1"
       d="m 22.684,9.0625 4.671,-1.1769 1.1793,4.6718"
       id="path870" />
  </g>
</svg>
