<?xml version="1.0" encoding="UTF-8" standalone="no"?>
<svg
   xmlns:dc="http://purl.org/dc/elements/1.1/"
   xmlns:cc="http://creativecommons.org/ns#"
   xmlns:rdf="http://www.w3.org/1999/02/22-rdf-syntax-ns#"
   xmlns:svg="http://www.w3.org/2000/svg"
   xmlns="http://www.w3.org/2000/svg"
   xmlns:xlink="http://www.w3.org/1999/xlink"
   width="64"
   height="64"
   viewBox="0 0 16.933 16.933"
   version="1.1"
   id="svg8">
  <defs
     id="defs2">
    <linearGradient
       id="linearGradient874">
      <stop
         style="stop-color:#4a6cf7;stop-opacity:1"
         offset="0"
         id="stop870" />
      <stop
         style="stop-color:#5e2cff;stop-opacity:1"
         offset="1"
         id="stop872" />
    </linearGradient>
    <linearGradient
       xlink:href="#linearGradient874"
       id="linearGradient876"
       x1="1.0583"
       y1="1.0583"
       x2="15.875"
       y2="15.875"
       gradientUnits="userSpaceOnUse" />
  </defs>
  <g id="favicon">
    <rect
       style="fill:url(#linearGradient876);fill-opacity:1;stroke:none;stroke-width:0.529;stroke-linecap:round;stroke-linejoin:round;stroke-miterlimit:4;stroke-dasharray:none;stroke-opacity:1"
       id="rect860"
       width="14.817"
       height="14.817"
       x="1.0583"
       y="1.0583"
       rx="2.1167"
       ry="2.1167" />
    <g
       aria-label="C"
       id="text864"
       style="font-style:normal;font-weight:normal;font-size:10.5833px;line-height:1.25;font-family:sans-serif;fill:#ffffff;fill-opacity:1;stroke:none;stroke-width:0.264583">
      <path
         d="m 10.922,11.1133 c -0.4233,0.3683 -0.8747,0.635 -1.3547,0.8 -0.4799,0.1651 -0.9878,0.2476 -1.5238,0.2476 -1.5805,0 -2.8398,-0.5503 -3.778,-1.651 -0.9379,-1.1064 -1.407,-2.6045 -1.407,-4.4945 0,-1.8957 0.469,-3.3965 1.407,-4.5022 0.9381,-1.1113 2.1974,-1.667 3.778,-1.667 0.536,0 1.044,0.0824 1.5238,0.2476 0.48,0.1589 0.9314,0.4032 1.3547,0.7327 v 1.5168 c -0.4356,-0.3475 -0.8665,-0.6043 -1.2928,-0.7701 -0.4262,-0.171 -0.875,-0.2566 -1.3464,-0.2566 -1.143,0 -2.0447,0.4139 -2.7047,1.2418 -0.6599,0.8278 -0.9902,1.9764 -0.9902,3.4457 0,1.4638 0.3302,2.6097 0.9908,3.4376 0.66,0.828 1.5617,1.242 2.704,1.242 0.4715,0 0.9202,-0.0856 1.3464,-0.2566 0.4263,-0.171 0.8572,-0.4279 1.2928,-0.7704 z"
         style="font-style:normal;font-variant:normal;font-weight:bold;font-stretch:normal;font-size:10.5833px;font-family:'Arial Rounded MT Bold';-inkscape-font-specification:'Arial Rounded MT Bold, Bold';fill:#ffffff;stroke-width:0.264583"
         id="path866" />
    </g>
    <path
       style="fill:none;stroke:#ffffff;stroke-width:0.555625;stroke-linecap:round;stroke-linejoin:round;stroke-miterlimit:4;stroke-dasharray:none;stroke-opacity:1"
       d="M 5.2917,2.1167 4.1484,2.4033 c -0.8202,0.2055 -1.0247,0.4102 -1.2332,1.2332 l -1.0625,4.2371 c -0.2052,0.8199 -4e-4,1.2326 0.8201,1.4383 l 4.2301,1.0627 c 0.8202,0.206 1.0247,0.01 1.2332,-0.812 L 9.2539,5.5008"
       id="path868" />
    <path
       style="fill:none;stroke:#ffffff;stroke-width:0.529167;stroke-linecap:round;stroke-linejoin:round;stroke-miterlimit:4;stroke-dasharray:none;stroke-opacity:1"
       d="m 7.9375,3.175 1.635,-0.4119 0.4127,1.6351"
       id="path870" />
  </g>
</svg>
