<?xml version="1.0" encoding="UTF-8"?>
<svg width="32px" height="32px" viewBox="0 0 32 32" version="1.1" xmlns="http://www.w3.org/2000/svg">
    <title>Codivus Logo</title>
    <g stroke="none" stroke-width="1" fill="none" fill-rule="evenodd">
        <circle fill="#4A6CF7" cx="16" cy="16" r="16"></circle>
        <path d="M22.6,8.5 C23.0418278,8.5 23.4,8.85817215 23.4,9.3 L23.4,22.7 C23.4,23.1418278 23.0418278,23.5 22.6,23.5 C22.1581722,23.5 21.8,23.1418278 21.8,22.7 L21.8,9.3 C21.8,8.85817215 22.1581722,8.5 22.6,8.5 Z" fill="#FFFFFF" fill-rule="nonzero"></path>
        <path d="M12.2771504,11.3 C12.582437,11.6052866 12.582437,12.0947134 12.2771504,12.4 L9.67715039,15 L12.2771504,17.6 C12.582437,17.9052866 12.582437,18.3947134 12.2771504,18.7 C11.9718637,19.0052866 11.4824369,19.0052866 11.1771503,18.7 L8.17715039,15.7 C7.87186373,15.3947134 7.87186373,14.9052866 8.17715039,14.6 L11.1771503,11.6 C11.4824369,11.2947134 11.9718637,11.2947134 12.2771504,11.3 Z" fill="#FFFFFF" fill-rule="nonzero"></path>
        <path d="M17.7228496,11.3 C18.0281363,11.2947134 18.5175631,11.2947134 18.8228497,11.6 L21.8228496,14.6 C22.1281363,14.9052866 22.1281363,15.3947134 21.8228496,15.7 L18.8228497,18.7 C18.5175631,19.0052866 18.0281363,19.0052866 17.7228496,18.7 C17.417563,18.3947134 17.417563,17.9052866 17.7228496,17.6 L20.3228496,15 L17.7228496,12.4 C17.417563,12.0947134 17.417563,11.6052866 17.7228496,11.3 Z" fill="#FFFFFF" fill-rule="nonzero"></path>
    </g>
</svg>
